#Comment line ignore any data following # character 
#Hierarchical Translation and Rotation (.htr) file 
[Header]	
#Header keywords are followed by a single value 
FileType HTR		#Single word string
DataType HTRS		#Translation followed by rotation and scale data
FileVersion 1		#integer
NumSegments 64		#integer
NumFrames 3		#integer
DataFrameRate 30		#integer, data frame rate in this file
EulerRotationOrder ZYX
CalibrationUnits mm
RotationUnits Degrees
GlobalAxisofGravity Y
BoneLengthAxis Y
ScaleFactor 1.00
[SegmentNames&Hierarchy]
#CHILD	PARENT
Pinger_Root GLOBAL
Pelvis Pinger_Root
L_Hip Pelvis
R_Hip Pelvis
Rear_Leg01 Pelvis
Spine1 Pelvis
L_Leg01 L_Hip
L_Leg02 L_Leg01
L_Leg03 L_Leg02
L_Foot L_Leg03
L_Toe1_01 L_Foot
L_Toe2_01 L_Foot
L_Toe3_01 L_Foot
planeAlignerLeft L_Foot
L_Toe1_02 L_Toe1_01
L_Toe1_03 L_Toe1_02
L_Toe2_02 L_Toe2_01
L_Toe2_03 L_Toe2_02
L_Toe3_02 L_Toe3_01
L_Toe3_03 L_Toe3_02
planeLockWeightLeft planeAlignerLeft
R_Leg01 R_Hip
R_Leg02 R_Leg01
R_Leg03 R_Leg02
R_Foot R_Leg03
planeAlignerRight R_Foot
R_Toe1_01 R_Foot
R_Toe2_01 R_Foot
R_Toe3_01 R_Foot
planeLockWeightRight planeAlignerRight
R_Toe1_02 R_Toe1_01
R_Toe1_03 R_Toe1_02
R_Toe2_02 R_Toe2_01
R_Toe2_03 R_Toe2_02
R_Toe3_02 R_Toe3_01
R_Toe3_03 R_Toe3_02
Rear_Leg02 Rear_Leg01
Rear_Leg03 Rear_Leg02
Rear_Leg04 Rear_Leg03
Rear_Foot Rear_Leg04
planeAlignerCenter Rear_Foot
Rear_Toe1_01 Rear_Foot
Rear_Toe2_01 Rear_Foot
Rear_Toe3_01 Rear_Foot
planeLockWeightCenter planeAlignerCenter
Rear_Toe1_02 Rear_Toe1_01
Rear_Toe1_03 Rear_Toe1_02
Rear_Toe2_02 Rear_Toe2_01
Rear_Toe2_03 Rear_Toe2_02
Rear_Toe3_02 Rear_Toe3_01
Rear_Toe3_03 Rear_Toe3_02
Back_Bone Spine1
Head Spine1
Motor_Bone Back_Bone
Ping_Mechanism Back_Bone
BN_LookIK Head
bottomMouth Head
L_Mouth01 Head
L_mouthFront Head
mouthGun Head
R_Mouth01 Head
R_mouthFront Head
TopMouth Head
weapon_bone Head
[BasePosition]
#SegmentName Tx, Ty, Tz, Rx, Ry, Rz, BoneLength
Pinger_Root 0.000000 0.000000 0.000000 -90.000000 0.000000 0.000000 10.000000 
Pelvis 0.000000 0.000000 0.000000 0.000000 0.000000 0.000000 10.000000 
L_Hip 0.000000 0.000000 0.000000 0.000000 0.000000 0.000000 10.000000 
R_Hip 0.000000 0.000000 0.000000 0.000000 0.000000 0.000000 10.000000 
Rear_Leg01 0.000000 0.000000 0.000000 0.000000 0.000000 0.000000 10.000000 
Spine1 0.000000 0.000000 0.000000 0.000000 0.000000 0.000000 10.000000 
L_Leg01 0.000000 0.000000 0.000000 0.000000 0.000000 0.000000 10.000000 
L_Leg02 0.000000 0.000000 0.000000 0.000000 0.000000 0.000000 10.000000 
L_Leg03 0.000000 0.000000 0.000000 0.000000 0.000000 0.000000 10.000000 
L_Foot 0.000000 0.000000 0.000000 0.000000 0.000000 0.000000 10.000000 
L_Toe1_01 0.000000 0.000000 0.000000 0.000000 0.000000 0.000000 10.000000 
L_Toe2_01 0.000000 0.000000 0.000000 0.000000 0.000000 0.000000 10.000000 
L_Toe3_01 0.000000 0.000000 0.000000 0.000000 0.000000 0.000000 10.000000 
planeAlignerLeft 0.000000 0.000000 0.000000 0.000000 0.000000 0.000000 10.000000 
L_Toe1_02 0.000000 0.000000 0.000000 0.000000 0.000000 0.000000 10.000000 
L_Toe1_03 0.000000 0.000000 0.000000 0.000000 0.000000 0.000000 10.000000 
L_Toe2_02 0.000000 0.000000 0.000000 0.000000 0.000000 0.000000 10.000000 
L_Toe2_03 0.000000 0.000000 0.000000 0.000000 0.000000 0.000000 10.000000 
L_Toe3_02 0.000000 0.000000 0.000000 0.000000 0.000000 0.000000 10.000000 
L_Toe3_03 0.000000 0.000000 0.000000 0.000000 0.000000 0.000000 10.000000 
planeLockWeightLeft 0.000000 0.000000 0.000000 0.000000 0.000000 0.000000 10.000000 
R_Leg01 0.000000 0.000000 0.000000 0.000000 0.000000 0.000000 10.000000 
R_Leg02 0.000000 0.000000 0.000000 0.000000 0.000000 0.000000 10.000000 
R_Leg03 0.000000 0.000000 0.000000 0.000000 0.000000 0.000000 10.000000 
R_Foot 0.000000 0.000000 0.000000 0.000000 0.000000 0.000000 10.000000 
planeAlignerRight 0.000000 0.000000 0.000000 0.000000 0.000000 0.000000 10.000000 
R_Toe1_01 0.000000 0.000000 0.000000 0.000000 0.000000 0.000000 10.000000 
R_Toe2_01 0.000000 0.000000 0.000000 0.000000 0.000000 0.000000 10.000000 
R_Toe3_01 0.000000 0.000000 0.000000 0.000000 0.000000 0.000000 10.000000 
planeLockWeightRight 0.000000 0.000000 0.000000 0.000000 0.000000 0.000000 10.000000 
R_Toe1_02 0.000000 0.000000 0.000000 0.000000 0.000000 0.000000 10.000000 
R_Toe1_03 0.000000 0.000000 0.000000 0.000000 0.000000 0.000000 10.000000 
R_Toe2_02 0.000000 0.000000 0.000000 0.000000 0.000000 0.000000 10.000000 
R_Toe2_03 0.000000 0.000000 0.000000 0.000000 0.000000 0.000000 10.000000 
R_Toe3_02 0.000000 0.000000 0.000000 0.000000 0.000000 0.000000 10.000000 
R_Toe3_03 0.000000 0.000000 0.000000 0.000000 0.000000 0.000000 10.000000 
Rear_Leg02 0.000000 0.000000 0.000000 0.000000 0.000000 0.000000 10.000000 
Rear_Leg03 0.000000 0.000000 0.000000 0.000000 0.000000 0.000000 10.000000 
Rear_Leg04 0.000000 0.000000 0.000000 0.000000 0.000000 0.000000 10.000000 
Rear_Foot 0.000000 0.000000 0.000000 0.000000 0.000000 0.000000 10.000000 
planeAlignerCenter 0.000000 0.000000 0.000000 0.000000 0.000000 0.000000 10.000000 
Rear_Toe1_01 0.000000 0.000000 0.000000 0.000000 0.000000 0.000000 10.000000 
Rear_Toe2_01 0.000000 0.000000 0.000000 0.000000 0.000000 0.000000 10.000000 
Rear_Toe3_01 0.000000 0.000000 0.000000 0.000000 0.000000 0.000000 10.000000 
planeLockWeightCenter 0.000000 0.000000 0.000000 0.000000 0.000000 0.000000 10.000000 
Rear_Toe1_02 0.000000 0.000000 0.000000 0.000000 0.000000 0.000000 10.000000 
Rear_Toe1_03 0.000000 0.000000 0.000000 0.000000 0.000000 0.000000 10.000000 
Rear_Toe2_02 0.000000 0.000000 0.000000 0.000000 0.000000 0.000000 10.000000 
Rear_Toe2_03 0.000000 0.000000 0.000000 0.000000 0.000000 0.000000 10.000000 
Rear_Toe3_02 0.000000 0.000000 0.000000 0.000000 0.000000 0.000000 10.000000 
Rear_Toe3_03 0.000000 0.000000 0.000000 0.000000 0.000000 0.000000 10.000000 
Back_Bone 0.000000 0.000000 0.000000 0.000000 0.000000 0.000000 10.000000 
Head 0.000000 0.000000 0.000000 0.000000 0.000000 0.000000 10.000000 
Motor_Bone 0.000000 0.000000 0.000000 0.000000 0.000000 0.000000 10.000000 
Ping_Mechanism 0.000000 0.000000 0.000000 0.000000 0.000000 0.000000 10.000000 
BN_LookIK 0.000000 0.000000 0.000000 0.000000 0.000000 0.000000 10.000000 
bottomMouth 0.000000 0.000000 0.000000 0.000000 0.000000 0.000000 10.000000 
L_Mouth01 0.000000 0.000000 0.000000 0.000000 0.000000 0.000000 10.000000 
L_mouthFront 0.000000 0.000000 0.000000 0.000000 0.000000 0.000000 10.000000 
mouthGun 0.000000 0.000000 0.000000 0.000000 0.000000 0.000000 10.000000 
R_Mouth01 0.000000 0.000000 0.000000 0.000000 0.000000 0.000000 10.000000 
R_mouthFront 0.000000 0.000000 0.000000 0.000000 0.000000 0.000000 10.000000 
TopMouth 0.000000 0.000000 0.000000 0.000000 0.000000 0.000000 10.000000 
weapon_bone 0.000000 0.000000 0.000000 0.000000 0.000000 0.000000 10.000000 
#Beginning of Data. Separated by tabs
#Fr	Tx	Ty	Tz	Rx	Ry	Rz	SF
[Pinger_Root]
1 0.000000 0.000000 0.000000 -0.000075 -0.000000 -0.000020 0.000000
2 -73.410988 -0.000020 0.000000 -0.000075 -0.000000 -0.000020 73.410988
3 -150.553940 -0.000042 0.000000 -0.000075 -0.000000 -0.000020 150.553940
[Pelvis]
1 -839.576843 186.342194 5059.364258 -102.010681 -77.101311 137.769302 5131.937500
2 -810.343445 183.818710 5078.731445 -102.979607 -78.600670 138.775436 5146.256836
3 -777.916870 176.615112 5085.211914 -106.605614 -82.393669 142.502350 5147.399902
[L_Hip]
1 5.766392 125.831482 872.656799 -178.253311 -81.787758 87.381340 881.701050
2 5.766392 125.831482 872.656799 -178.253326 -81.787712 87.381294 881.701050
3 5.766392 125.831482 872.656799 -178.253296 -81.787758 87.381302 881.701050
[R_Hip]
1 5.765438 125.836372 -872.654907 -1.746690 81.787712 87.381248 881.699829
2 5.765438 125.836372 -872.654907 -1.746702 81.787712 87.381203 881.699829
3 5.765438 125.836372 -872.654907 -1.746714 81.787712 87.381248 881.699829
[Rear_Leg01]
1 -192.298416 -925.602966 -0.001907 178.705460 30.296848 -156.596558 945.367432
2 -192.298416 -925.602966 -0.001907 -179.909866 28.633877 -155.256561 945.367432
3 -192.298416 -925.602966 -0.001907 -177.455414 24.157257 -152.930023 945.367432
[Spine1]
1 290.604584 5.007505 0.000477 -20.740189 14.657720 14.314393 290.647736
2 290.604584 5.007505 0.000477 -20.786280 14.545424 15.810648 290.647736
3 290.604584 5.007505 0.000477 -20.952208 14.201293 19.583963 290.647736
[L_Leg01]
1 761.932007 -0.002384 -0.069261 61.468296 -0.748048 -71.033272 761.932068
2 761.932007 -0.002384 -0.069261 61.917183 0.145919 -71.576736 761.932068
3 761.932007 -0.002384 -0.069261 63.125519 1.910165 -72.140572 761.932068
[L_Leg02]
1 1441.140503 -0.000954 -0.000715 -1.492373 0.609253 -86.389442 1441.140503
2 1441.140503 -0.000954 -0.000715 -1.473860 0.633782 -86.342079 1441.140503
3 1441.140503 -0.000954 -0.000715 -1.441472 0.668565 -87.651222 1441.140503
[L_Leg03]
1 1686.963989 -0.000715 -0.000954 0.054227 -0.013166 95.622871 1686.963989
2 1686.963989 -0.000715 -0.000954 0.061369 -0.012776 94.253754 1686.963989
3 1686.963989 -0.000715 -0.000954 0.064988 -0.015357 92.411072 1686.963989
[L_Foot]
1 3041.570068 -30.715107 11.297464 -20.243805 15.958226 77.631523 3041.746094
2 3041.570068 -30.715107 11.297464 -19.785374 15.960628 78.736748 3041.746094
3 3041.570068 -30.715107 11.297464 -19.177309 16.042418 80.488548 3041.746094
[L_Toe1_01]
1 -188.216690 -224.732346 -21.137953 89.699348 -3.374833 -165.449051 293.899567
2 -188.216690 -224.732346 -21.137953 89.747147 -3.557067 -165.576340 293.899567
3 -188.216690 -224.732346 -21.137953 89.699585 -3.381232 -165.312180 293.899567
[L_Toe2_01]
1 200.746536 -219.926590 148.838394 -77.584976 -14.474025 -44.187046 332.896027
2 200.746536 -219.926590 148.838394 -77.574852 -14.392913 -44.290115 332.896027
3 200.746536 -219.926590 148.838394 -77.564873 -14.311778 -44.393127 332.896027
[L_Toe3_01]
1 188.832520 -219.859131 -191.078659 -105.094337 14.710049 -44.951870 347.140900
2 188.832520 -219.859131 -191.078659 -105.055313 14.347095 -45.080677 347.140900
3 188.832520 -219.859131 -191.078659 -105.144798 14.529695 -45.241539 347.140900
[planeAlignerLeft]
1 -12.167969 -606.276306 27.238922 0.000000 -90.000000 -90.001633 607.009888
2 -5.443420 -607.898315 30.312193 0.000000 -90.000000 -90.004288 608.677917
3 -7.633972 -609.583618 28.399582 0.000000 -90.000000 -90.006950 610.292542
[L_Toe1_02]
1 413.761139 0.000477 0.000000 0.001412 -22.421448 0.001412 413.761139
2 413.761139 0.000477 0.000000 0.001413 -22.355911 0.001413 413.761139
3 413.761139 0.000477 0.000000 0.001413 -22.290375 0.001413 413.761139
[L_Toe1_03]
1 464.317322 0.000358 -0.000089 0.015052 81.056046 0.015052 464.317322
2 464.317322 0.000358 -0.000089 0.016627 81.904610 0.016627 464.317322
3 464.317322 0.000358 -0.000089 0.015800 81.480438 0.015800 464.317322
[L_Toe2_02]
1 342.235809 -0.000477 0.000238 0.001180 -77.741257 0.001180 342.235809
2 342.235809 -0.000477 0.000238 0.001181 -77.598480 0.001181 342.235809
3 342.235809 -0.000477 0.000238 0.001181 -77.455681 0.001181 342.235809
[L_Toe2_03]
1 420.210846 -0.000715 0.000000 -179.996613 77.155922 -179.993103 420.210846
2 420.210846 -0.000715 0.000000 -179.996063 78.414101 -179.992554 420.210846
3 420.210846 -0.000715 0.000000 -179.996094 78.350281 -179.992569 420.210846
[L_Toe3_02]
1 329.270111 0.000954 0.000000 0.001177 -81.880569 0.001177 329.270111
2 329.270111 0.000954 0.000000 0.001177 -81.877907 0.001177 329.270111
3 329.270111 0.000954 0.000000 0.001177 -81.875374 0.001177 329.270111
[L_Toe3_03]
1 439.137451 -0.001907 0.000954 -179.997986 72.516495 -179.994446 439.137451
2 439.137451 -0.001907 0.000954 -179.997787 73.377525 -179.994263 439.137451
3 439.137451 -0.001907 0.000954 -179.997818 73.244064 -179.994293 439.137451
[planeLockWeightLeft]
1 1000.000366 -0.000305 -0.000134 -0.011826 -0.004376 0.005620 1000.000366
2 1000.000366 -0.000305 -0.000129 -0.011826 -0.004376 0.005620 1000.000366
3 1000.000366 -0.000305 -0.000125 -0.011826 -0.004376 0.005620 1000.000366
[R_Leg01]
1 761.455627 -0.001907 -0.000358 95.251671 -38.604603 69.008072 761.455688
2 761.455627 -0.001907 -0.000358 94.310707 -36.862576 69.463203 761.455688
3 761.455627 -0.001907 -0.000358 92.069923 -33.126095 70.648254 761.455688
[R_Leg02]
1 1441.140625 0.000000 -0.000238 0.182715 -0.037801 -100.783569 1441.140625
2 1441.140625 0.000000 -0.000238 0.183155 -0.031975 -98.885933 1441.140625
3 1441.140625 0.000000 -0.000238 0.183788 -0.026166 -96.988304 1441.140625
[R_Leg03]
1 1686.963989 0.000954 0.001431 -0.049499 0.013082 95.962837 1686.963989
2 1686.963989 0.000954 0.001431 -0.060077 0.016095 94.003807 1686.963989
3 1686.963989 0.000954 0.001431 -0.067392 0.014941 91.620529 1686.963989
[R_Foot]
1 3041.560059 -30.531288 -11.204481 21.206039 -22.303890 59.046741 3041.734131
2 3041.560059 -30.531288 -11.204481 21.488367 -22.678972 59.435925 3041.734131
3 3041.560059 -30.531288 -11.204481 21.768700 -23.055809 59.824165 3041.734131
[planeAlignerRight]
1 -0.757217 -688.422119 0.057983 0.000000 -89.951546 -90.004936 688.422546
2 -8.109970 -664.772583 4.443970 0.000000 -89.944046 -90.006844 664.836914
3 -25.896072 -620.856628 14.518738 0.000000 -89.955765 -90.008751 621.566040
[R_Toe1_01]
1 -188.383347 -224.864899 21.052242 90.732307 1.939786 -159.549622 294.101532
2 -188.383347 -224.864899 21.052242 90.707253 1.719047 -161.160049 294.101532
3 -188.383347 -224.864899 21.052242 90.704971 1.203593 -163.892517 294.101532
[R_Toe2_01]
1 200.637817 -220.002121 -148.787384 -103.203026 11.339010 -50.098309 332.857574
2 200.637817 -220.002121 -148.787384 -102.781242 11.654112 -48.192127 332.857574
3 200.637817 -220.002121 -148.787384 -101.955772 12.188179 -44.398090 332.857574
[R_Toe3_01]
1 188.606735 -220.092957 191.126343 -72.752968 -14.071604 -52.003860 347.192566
2 188.606735 -220.092957 191.126343 -73.073021 -14.997597 -50.278149 347.192566
3 188.606735 -220.092957 191.126343 -73.729553 -16.973469 -46.925648 347.192566
[planeLockWeightRight]
1 999.999329 0.000458 -0.000458 -0.011823 -0.004379 -0.000027 999.999329
2 999.999390 0.000439 -0.000402 -0.011823 -0.004379 -0.000027 999.999390
3 999.999512 0.000420 -0.000346 -0.011823 -0.004379 -0.000027 999.999512
[R_Toe1_02]
1 413.762085 0.000477 -0.000119 0.001404 -23.390312 0.001404 413.762085
2 413.762085 0.000477 -0.000119 0.001406 -23.228745 0.001406 413.762085
3 413.762085 0.000477 -0.000119 0.001407 -23.067175 0.001407 413.762085
[R_Toe1_03]
1 464.317810 0.000000 0.001088 0.010088 76.638115 0.010088 464.317810
2 464.317810 0.000000 0.001088 0.010729 77.439995 0.010729 464.317810
3 464.317810 0.000000 0.001088 0.011458 78.241882 0.011458 464.317810
[R_Toe2_02]
1 342.234741 -0.000954 0.000238 -0.002342 -75.466133 -0.002342 342.234741
2 342.234741 -0.000954 0.000238 -0.002339 -76.476379 -0.002339 342.234741
3 342.234741 -0.000954 0.000238 -0.002336 -78.148361 -0.002336 342.234741
[R_Toe2_03]
1 420.210846 0.000715 -0.000268 -179.983963 85.388924 -179.987473 420.210846
2 420.210846 0.000715 -0.000268 -179.990311 81.701752 -179.993805 420.210846
3 420.210846 0.000715 -0.000268 -179.993958 74.578705 -179.997482 420.210846
[R_Toe3_02]
1 329.270355 -0.000477 -0.000954 0.001179 -79.331924 0.001179 329.270355
2 329.270355 -0.000477 -0.000954 0.001178 -80.150345 0.001178 329.270355
3 329.270355 -0.000477 -0.000954 0.001177 -81.494850 0.001177 329.270355
[R_Toe3_03]
1 439.137939 0.000238 0.001431 -179.992584 82.804810 -179.989090 439.137939
2 439.137939 0.000238 0.001431 -179.995285 79.818954 -179.991776 439.137939
3 439.137939 0.000238 0.001431 -179.997589 74.175201 -179.994064 439.137939
[Rear_Leg02]
1 1162.777710 -0.029802 0.005960 24.476177 -20.212280 -97.630959 1162.777710
2 1162.777710 -0.029802 0.005960 25.647345 -18.268677 -101.564323 1162.777710
3 1162.777710 -0.029802 0.005960 28.389875 -11.657554 -113.744804 1162.777710
[Rear_Leg03]
1 607.192505 -0.013351 -0.073195 0.010116 -0.005815 76.141006 607.192505
2 607.192505 -0.013351 -0.073195 0.010067 -0.005900 77.105377 607.192505
3 607.192505 -0.013351 -0.073195 0.009937 -0.006116 79.580635 607.192505
[Rear_Leg04]
1 995.874512 -0.020504 -0.011921 -0.042619 -0.018664 86.857986 995.874573
2 995.874512 -0.020504 -0.011921 -0.043113 -0.017492 89.990715 995.874573
3 995.874512 -0.020504 -0.011921 -0.044487 -0.013624 100.103592 995.874573
[Rear_Foot]
1 3096.176270 -0.067472 -0.041425 -36.578712 40.139580 96.966599 3096.176270
2 3096.176270 -0.067472 -0.041425 -38.556751 41.613281 98.343460 3096.176270
3 3096.176270 -0.067472 -0.041425 -42.944096 45.212914 101.454964 3096.176270
[planeAlignerCenter]
1 -0.071716 245.108948 -761.916138 0.001660 -0.001660 179.998337 800.371582
2 0.836182 248.033447 -759.976501 0.001660 -0.001660 179.998337 799.428284
3 3.004150 255.495132 -756.966064 0.001660 -0.001660 179.998337 798.927063
[Rear_Toe1_01]
1 0.653352 83.966492 -371.173737 0.097510 39.664883 90.046974 380.553192
2 0.653352 83.966492 -371.173737 0.094999 39.689430 90.046158 380.553192
3 0.653352 83.966492 -371.173737 0.092491 39.713966 90.045326 380.553192
[Rear_Toe2_01]
1 178.200760 -294.826019 -362.060547 62.316086 84.619949 -8.356788 499.765686
2 178.200760 -294.826019 -362.060547 59.923817 84.300133 -10.687113 499.765686
3 178.200760 -294.826019 -362.060547 53.885807 83.402336 -16.540470 499.765686
[Rear_Toe3_01]
1 -153.359680 -308.780914 -362.060852 -64.110832 83.958504 -175.630646 499.952881
2 -153.359680 -308.780914 -362.060852 -61.928158 83.630035 -173.524811 499.952881
3 -153.359680 -308.780914 -362.060852 -56.324429 82.727966 -168.125961 499.952881
[planeLockWeightCenter]
1 -0.000305 0.000610 0.000000 -0.011814 -0.004373 -0.000015 0.000682
2 -0.000229 0.000610 0.000000 -0.011814 -0.004373 -0.000015 0.000652
3 -0.000153 0.000610 0.000000 -0.011814 -0.004373 -0.000015 0.000629
[Rear_Toe1_02]
1 379.707825 0.194073 0.000477 -0.002653 -32.263226 -0.002653 379.707855
2 379.707825 0.194073 0.000477 -0.002650 -32.460884 -0.002650 379.707855
3 379.707825 0.194073 0.000477 -0.002648 -32.658543 -0.002648 379.707855
[Rear_Toe1_03]
1 500.129700 0.165701 0.000119 -179.984131 85.335075 -179.987625 500.129761
2 500.129700 0.165701 0.000119 -179.980637 86.259949 -179.984131 500.129761
3 500.129700 0.165701 0.000119 -179.949768 88.641594 -179.953262 500.129761
[Rear_Toe2_02]
1 340.494507 0.000238 -0.000954 179.998825 -87.351372 179.998825 340.494507
2 340.494507 0.000238 -0.000954 179.998825 -87.545692 179.998825 340.494507
3 340.494507 0.000238 -0.000954 179.998825 -87.739983 179.998825 340.494507
[Rear_Toe2_03]
1 433.103577 0.000000 0.000238 -179.996231 55.410847 -179.999893 433.103546
2 433.103577 0.000000 0.000238 -179.996216 55.701530 -179.999878 433.103546
3 433.103577 0.000000 0.000238 -179.996185 56.603985 -179.999832 433.103546
[Rear_Toe3_02]
1 340.494141 -0.000358 -0.000477 -179.994171 -87.399399 -179.994171 340.494171
2 340.494141 -0.000358 -0.000477 -179.995346 -87.605019 -179.995346 340.494171
3 340.494141 -0.000358 -0.000477 -179.996506 -87.810898 -179.996506 340.494171
[Rear_Toe3_03]
1 433.103577 0.001431 -0.000238 179.992371 55.667976 179.999680 433.103546
2 433.103577 0.001431 -0.000238 179.992325 55.975792 179.999649 433.103546
3 433.103577 0.001431 -0.000238 179.992233 56.918789 179.999527 433.103546
[Back_Bone]
1 1312.175781 -701.934692 0.000954 -2.876992 1.429053 -84.242424 1488.125488
2 1312.175781 -701.934692 0.000954 -3.016175 1.111372 -84.530403 1488.125488
3 1312.175781 -701.934692 0.000954 -3.153744 0.792996 -84.817581 1488.125488
[Head]
1 1406.159424 809.709290 0.001431 -10.035360 7.773756 1.985508 1622.625488
2 1406.159424 809.709290 0.001431 -10.003037 7.712475 1.732498 1622.625488
3 1406.159424 809.709290 0.001431 -9.970448 7.651338 1.479489 1622.625488
[Motor_Bone]
1 1158.364380 -417.834747 0.000477 -2.687934 0.131929 -105.851517 1231.419434
2 1158.364380 -417.834747 0.000477 -5.513655 1.191246 -104.796577 1231.419434
3 1158.364380 -417.834747 0.000477 -3.495545 0.584006 -105.401466 1231.419434
[Ping_Mechanism]
1 1264.058472 -454.176636 -37.858883 0.000103 -0.000053 82.120995 1343.708862
2 1257.586304 -451.774261 -34.419174 0.000103 -0.000053 82.120995 1336.715454
3 1241.597900 -445.584076 -25.094757 0.000103 -0.000053 82.120995 1319.371216
[BN_LookIK]
1 193.241119 1380.371704 -0.002861 0.000000 89.965736 -31.038179 1393.832153
2 193.241119 1380.371704 -0.002861 0.000000 89.965736 -31.038179 1393.832153
3 193.241119 1380.371704 -0.002861 0.000000 89.965736 -31.038179 1393.832153
[bottomMouth]
1 -435.092926 615.759399 -0.000954 -0.000022 0.000016 73.527184 753.966492
2 -435.092926 615.759399 -0.000954 -0.000022 0.000016 73.527184 753.966492
3 -435.092926 615.759399 -0.000954 -0.000022 0.000016 73.527184 753.966492
[L_Mouth01]
1 554.440979 7.658243 838.222046 150.204178 23.759130 109.605339 1005.027161
2 554.440979 7.658243 838.222046 150.204178 23.759130 109.605339 1005.027161
3 554.440979 7.658243 838.222046 150.204178 23.759130 109.605339 1005.027161
[L_mouthFront]
1 551.629089 934.514771 339.150421 0.000081 2.804060 79.119301 1136.941284
2 551.629089 934.514771 339.150421 0.000081 2.804060 79.119301 1136.941284
3 551.629089 934.514771 339.150421 0.000081 2.804060 79.119301 1136.941284
[mouthGun]
1 55.332661 1627.420898 0.000000 0.000023 0.000009 -11.038128 1628.361328
2 55.332661 1627.420898 0.000000 0.000023 0.000009 -11.038128 1628.361328
3 55.332661 1627.420898 0.000000 0.000023 0.000009 -11.038128 1628.361328
[R_Mouth01]
1 554.442383 7.659197 -838.223938 29.795891 -23.759109 109.605331 1005.029541
2 554.442383 7.659197 -838.223938 29.795891 -23.759109 109.605331 1005.029541
3 554.442383 7.659197 -838.223938 29.795891 -23.759109 109.605331 1005.029541
[R_mouthFront]
1 551.629089 934.514282 -339.151367 0.000029 -2.803930 79.119133 1136.941162
2 551.629089 934.514282 -339.151367 0.000029 -2.803930 79.119133 1136.941162
3 551.629089 934.514282 -339.151367 0.000029 -2.803930 79.119133 1136.941162
[TopMouth]
1 461.269867 -56.106091 -0.008583 -0.000059 -0.000268 92.025169 464.669525
2 461.269867 -56.106091 -0.008583 -0.000059 -0.000268 92.025169 464.669525
3 461.269867 -56.106091 -0.008583 -0.000059 -0.000268 92.025169 464.669525
[weapon_bone]
1 -987.239868 1448.372803 0.001431 0.000000 89.965736 -31.038221 1752.833740
2 -987.239868 1448.372803 0.001431 0.000000 89.965736 -31.038221 1752.833740
3 -987.239868 1448.372803 0.001431 0.000000 89.965736 -31.038221 1752.833740
